<svg clip-rule="evenodd" fill-rule="evenodd" stroke-linejoin="round" stroke-miterlimit="2" viewBox="0 0 871 871" xmlns="http://www.w3.org/2000/svg"><path d="m.008 0h868.054v868.054h-868.054z" fill="none"/><g fill-rule="nonzero"><path d="m766.446 227.304-185.296-220.783c-4.2-5-10.675-7.204-16.996-6.338h-395.537c-40.571 0-73.613 33.005-73.613 73.596v720.675c0 40.558 33.021 73.596 73.613 73.596h530.537c40.592 0 73.579-33.038 73.579-73.596v-551.733c.034-.488.313-.904.313-1.409-.021-5.608-2.554-10.625-6.6-14.008z" fill="#333f4c"/><path d="m435.417 199.704c-99.436 0-180.029 80.593-180.029 180.028 0 100.016 80.013 140.022 120.019 220.035h120.019c40.006-80.013 120.019-120.019 120.019-220.035 0-99.435-80.593-180.028-180.028-180.028zm0 60.009v100.016h80.012l-80.012 140.022v-100.016h-80.013zm-60.01 380.06v20.003c0 22.104 17.903 40.006 40.007 40.006 0 10.974 9.029 20.004 20.003 20.004 10.973 0 20.003-9.03 20.003-20.004 22.103 0 40.006-17.902 40.006-40.006v-20.003z" fill="#fec136"/></g></svg>